<svg fill="currentColor" xmlns="http://www.w3.org/2000/svg"><path fill-rule="evenodd" clip-rule="evenodd" d="M1.5 9c0-3.252 2.748-6 6-6 1.808 0 3.428.76 4.527 1.982C13.154 3.774 14.747 3 16.5 3c3.24 0 6 2.635 6 6 0 1.668-.707 3.222-1.693 4.207l-.004.004-8.1 8a1 1 0 01-1.406 0l-8.1-8a.985.985 0 01-.044-.047C2.229 12.125 1.5 10.698 1.5 9zm6-4c-2.148 0-4 1.852-4 4 0 1.091.462 2.055 1.127 2.812L12 19.095l7.393-7.302.002-.002C20.009 11.176 20.5 10.13 20.5 9c0-2.235-1.84-4-4-4-1.507 0-2.89.877-3.628 2.19a1 1 0 01-1.766-.043C10.478 5.891 9.127 5 7.5 5z"/></svg>
