<svg width="131" height="26" viewBox="0 0 131 26" fill="none" xmlns="http://www.w3.org/2000/svg">
<g clip-path="url(#clip0)">
<path fill-rule="evenodd" clip-rule="evenodd" d="M64.9577 22.161H61.5439V9.62628H64.9577V22.161Z" fill="black"/>
<path fill-rule="evenodd" clip-rule="evenodd" d="M56.7096 9.6261L53.3689 18.7459L50.0282 9.6261H46.6172L51.2112 22.1608H52.1187H54.6177H55.5266L60.1196 9.6261H56.7096Z" fill="black"/>
<path fill-rule="evenodd" clip-rule="evenodd" d="M77.0039 12.388V9.62604H72.9179V6.16846H69.5079V9.62604H66.8096V12.388H69.5079V17.7801C69.5079 20.5626 70.8973 22.4186 74.4353 22.4186C75.8048 22.4186 77.0039 21.9182 77.0039 21.9182L76.5909 19.2097C76.5909 19.2097 75.919 19.4095 75.0933 19.4095C74.0811 19.4095 72.9179 18.9741 72.9179 17.5687V12.388H77.0039Z" fill="black"/>
<path fill-rule="evenodd" clip-rule="evenodd" d="M37.5505 15.8911L39.6678 10.12L41.7816 15.8911H37.5505ZM44.077 22.1608H47.7083L40.982 3.80035H40.4378H39.1918H38.3494L31.623 22.1608H35.255L36.5379 18.6576H42.7903L44.077 22.1608Z" fill="black"/>
<path fill-rule="evenodd" clip-rule="evenodd" d="M84.8272 19.2946C82.9277 19.2946 81.3856 17.7827 81.3856 15.9188C81.3856 14.0538 82.9277 12.5416 84.8272 12.5416C86.7305 12.5416 88.2695 14.0538 88.2695 15.9188C88.2695 17.7827 86.7305 19.2946 84.8272 19.2946ZM84.8272 9.30481C81.1309 9.30481 78.1318 12.2479 78.1318 15.8722C78.1318 19.4989 81.1309 22.4401 84.8272 22.4401C88.5218 22.4401 91.5246 19.4989 91.5246 15.8722C91.5246 12.2479 88.5218 9.30481 84.8272 9.30481Z" fill="black"/>
<path fill-rule="evenodd" clip-rule="evenodd" d="M65.4526 5.95416C65.4526 7.17231 64.4672 8.15874 63.2542 8.15874C62.0374 8.15874 61.0537 7.17231 61.0537 5.95416C61.0537 4.73761 62.0374 3.74957 63.2542 3.74957C64.4672 3.74957 65.4526 4.73761 65.4526 5.95416Z" fill="black"/>
<path fill-rule="evenodd" clip-rule="evenodd" d="M11.4947 5.76259C11.4947 8.94534 8.9226 11.5265 5.74821 11.5265C2.57382 11.5265 0 8.94534 0 5.76259C0 2.58036 2.57382 0 5.74821 0C8.9226 0 11.4947 2.58036 11.4947 5.76259Z" fill="#00AAFF"/>
<path fill-rule="evenodd" clip-rule="evenodd" d="M25.8767 18.9358C25.8767 22.8081 22.7451 25.9466 18.8832 25.9466C15.023 25.9466 11.8945 22.8081 11.8945 18.9358C11.8945 15.0633 15.023 11.9243 18.8832 11.9243C22.7451 11.9243 25.8767 15.0633 25.8767 18.9358Z" fill="#97CF26"/>
<path fill-rule="evenodd" clip-rule="evenodd" d="M23.3857 5.76257C23.3857 8.25503 21.37 10.2769 18.8835 10.2769C16.4001 10.2769 14.3848 8.25503 14.3848 5.76257C14.3848 3.27062 16.4001 1.25061 18.8835 1.25061C21.37 1.25061 23.3857 3.27062 23.3857 5.76257Z" fill="#FF6163"/>
<path fill-rule="evenodd" clip-rule="evenodd" d="M9.00451 18.9359C9.00451 20.7391 7.54588 22.1983 5.74835 22.1983C3.95081 22.1983 2.49219 20.7391 2.49219 18.9359C2.49219 17.1327 3.95081 15.6735 5.74835 15.6735C7.54588 15.6735 9.00451 17.1327 9.00451 18.9359Z" fill="#A169F7"/>
<path d="M102.107 16.0885C102.556 16.0885 102.951 16.0306 103.291 15.915C103.636 15.7994 103.922 15.6375 104.146 15.4293C104.377 15.2154 104.55 14.9581 104.665 14.6574C104.78 14.3567 104.838 14.0214 104.838 13.6513C104.838 13.287 104.78 12.9603 104.665 12.6712C104.556 12.3821 104.388 12.1364 104.164 11.934C103.939 11.7316 103.654 11.5784 103.308 11.4743C102.968 11.3645 102.568 11.3095 102.107 11.3095H100.257V16.0885H102.107ZM102.107 9.72235C102.919 9.72235 103.622 9.81776 104.216 10.0086C104.815 10.1994 105.308 10.4682 105.694 10.8152C106.085 11.1563 106.376 11.5697 106.567 12.0554C106.757 12.5354 106.852 13.0673 106.852 13.6513C106.852 14.2469 106.751 14.7933 106.549 15.2905C106.348 15.782 106.048 16.207 105.65 16.5655C105.253 16.9182 104.757 17.1957 104.164 17.3981C103.576 17.5947 102.89 17.693 102.107 17.693H100.257V22.2117H98.2344V9.72235H102.107Z" fill="black"/>
<path d="M112.225 15.7068C112.686 15.7068 113.09 15.6519 113.435 15.542C113.781 15.4264 114.069 15.2674 114.3 15.065C114.53 14.8627 114.703 14.6227 114.818 14.3452C114.934 14.0618 114.991 13.7496 114.991 13.4084C114.991 12.7262 114.766 12.2058 114.317 11.8473C113.867 11.4888 113.188 11.3095 112.277 11.3095H110.635V15.7068H112.225ZM118.085 22.2117H116.279C115.922 22.2117 115.662 22.0729 115.501 21.7954L112.597 17.5889C112.499 17.4444 112.392 17.3403 112.277 17.2767C112.162 17.2131 111.989 17.1813 111.759 17.1813H110.635V22.2117H108.612V9.72235H112.277C113.095 9.72235 113.798 9.80619 114.386 9.97387C114.98 10.1416 115.467 10.3815 115.847 10.6937C116.227 11.0002 116.507 11.3703 116.685 11.8039C116.87 12.2376 116.962 12.7204 116.962 13.2523C116.962 13.686 116.896 14.0907 116.763 14.4666C116.636 14.8424 116.449 15.1836 116.201 15.49C115.959 15.7965 115.66 16.0624 115.302 16.2879C114.945 16.5134 114.539 16.6898 114.084 16.817C114.331 16.9673 114.545 17.1784 114.723 17.4501L118.085 22.2117Z" fill="black"/>
<path d="M130.954 15.967C130.954 16.8921 130.804 17.745 130.505 18.5256C130.205 19.3062 129.782 19.9798 129.234 20.5464C128.693 21.1073 128.039 21.5468 127.272 21.8648C126.512 22.1828 125.665 22.3418 124.731 22.3418C123.803 22.3418 122.956 22.1828 122.19 21.8648C121.429 21.5468 120.775 21.1073 120.228 20.5464C119.68 19.9798 119.257 19.3062 118.957 18.5256C118.658 17.745 118.508 16.8921 118.508 15.967C118.508 15.0419 118.658 14.189 118.957 13.4084C119.257 12.6278 119.68 11.9542 120.228 11.3876C120.775 10.8209 121.429 10.3786 122.19 10.0606C122.956 9.74257 123.803 9.58356 124.731 9.58356C125.665 9.58356 126.512 9.74257 127.272 10.0606C128.039 10.3786 128.693 10.8209 129.234 11.3876C129.782 11.9542 130.205 12.6278 130.505 13.4084C130.804 14.189 130.954 15.0419 130.954 15.967ZM128.888 15.967C128.888 15.25 128.791 14.6053 128.595 14.0329C128.404 13.4605 128.128 12.9748 127.765 12.5758C127.408 12.1768 126.973 11.8704 126.46 11.6564C125.947 11.4425 125.371 11.3355 124.731 11.3355C124.097 11.3355 123.524 11.4425 123.011 11.6564C122.498 11.8704 122.06 12.1768 121.697 12.5758C121.334 12.9748 121.055 13.4605 120.859 14.0329C120.663 14.6053 120.565 15.25 120.565 15.967C120.565 16.6898 120.663 17.3374 120.859 17.9098C121.055 18.4822 121.334 18.9679 121.697 19.3669C122.06 19.7601 122.498 20.0636 123.011 20.2776C123.524 20.4857 124.097 20.5898 124.731 20.5898C125.371 20.5898 125.947 20.4857 126.46 20.2776C126.973 20.0636 127.408 19.7601 127.765 19.3669C128.128 18.9679 128.404 18.4822 128.595 17.9098C128.791 17.3374 128.888 16.6898 128.888 15.967Z" fill="black"/>
</g>
<defs>
<clipPath id="clip0">
<rect width="130.963" height="26" fill="white"/>
</clipPath>
</defs>
</svg>
