<svg width="360" height="360" viewBox="0 0 360 360" fill="none" xmlns="http://www.w3.org/2000/svg">
<circle cx="180" cy="180" r="180" fill="#04E061"/>
<path d="M259.999 80H99.9995C94.6957 80 89.6086 82.1072 85.8564 85.8569C82.1064 89.6087 79.9995 94.6962 79.9995 100V260C79.9995 265.304 82.1066 270.391 85.8564 274.143C89.6082 277.893 94.6957 280 99.9995 280H259.999C265.303 280 270.39 277.893 274.143 274.143C277.893 270.391 279.999 265.304 279.999 260V100C279.999 94.6962 277.892 89.6091 274.143 85.8569C270.391 82.1069 265.303 80 259.999 80ZM255.199 191.36C255.076 193.614 254.082 195.733 252.426 197.271C250.771 198.807 248.585 199.642 246.326 199.599C244.067 199.557 241.915 198.639 240.319 197.039L217.699 178.438L119.182 257.438C116.478 259.331 113.04 259.835 109.91 258.797C106.778 257.76 102.321 253.303 101.284 250.171C100.246 247.04 100.75 243.601 102.641 240.899L181.641 142.382L163.041 119.762C161.442 118.166 160.524 116.012 160.482 113.755C160.439 111.496 161.273 109.31 162.81 107.655C164.348 105.999 166.466 105.005 168.721 104.882L244.723 106.321C247.202 106.187 249.622 107.114 251.377 108.869C253.132 110.624 254.057 113.042 253.923 115.521L255.199 191.36Z" fill="white"/>
</svg>
