<?xml version="1.0" encoding="utf-8"?><svg viewBox="0 0 24 24" xmlns="http://www.w3.org/2000/svg" xmlns:xlink="http://www.w3.org/1999/xlink"><style>:root>svg{display:none}:root>svg:target{display:block}</style><svg viewBox="0 0 24 24" id="arrow" xmlns="http://www.w3.org/2000/svg"><path d="m11 7.41-5.3 5.3a1 1 0 0 1-1.4-1.42l7-7a1 1 0 0 1 1.4 0l7 7a1 1 0 0 1-1.4 1.42L13 7.4V19a1 1 0 1 1-2 0V7.41Z"/></svg><svg viewBox="0 0 24 24" id="arrow-2" xmlns="http://www.w3.org/2000/svg"><path fill-rule="evenodd" d="M7.25.836 12.415 6 7.25 11.164 5.836 9.75 8.586 7H0V5h8.586l-2.75-2.75L7.25.836Z" clip-rule="evenodd"/></svg><svg viewBox="0 0 6 16" id="arrow-3" xmlns="http://www.w3.org/2000/svg"><g clip-path="url(#ba)"><path fill-rule="evenodd" d="m1.803 8 3.645-4.1-.897-.797L.197 8l4.354 4.9.897-.797L1.803 8Z" clip-rule="evenodd"/></g><defs><clipPath id="ba"><path d="M0 0h6v16H0z"/></clipPath></defs></svg><svg viewBox="0 0 9 6" id="arrow-4" xmlns="http://www.w3.org/2000/svg"><path d="m1.5 1.5 3 3 3-3"/></svg><svg data-icon="close" viewBox="0 0 12 12" id="close" xmlns="http://www.w3.org/2000/svg"><path d="M11.58.42a.83.83 0 0 0-1.18 0L6 4.82 1.57.43A.83.83 0 1 0 .4 1.59l4.41 4.42-4.4 4.4a.83.83 0 1 0 1.17 1.18L6 7.2l4.41 4.4a.83.83 0 0 0 1.18-1.17L7.18 6l4.4-4.42a.83.83 0 0 0 0-1.17Z"/></svg><svg viewBox="0 0 16 12" id="delivery" xmlns="http://www.w3.org/2000/svg"><path d="M0 1.333C0 .965.298.667.667.667h8c.368 0 .666.298.666.666v6H10V4c0-.368.299-.667.667-.667h1.723c.177 0 .347.07.472.196l2.943 2.942a.666.666 0 0 1 .195.472v2.39a.667.667 0 0 1-.667.667h-.69a2.334 2.334 0 0 1-4.62 0H5.977a2.334 2.334 0 0 1-4.643-.333v-.024A2.666 2.666 0 0 1 0 7.333v-6zM11.39 10a1 1 0 1 0 1.886-.667A1 1 0 0 0 11.39 10zm-7.723.667a1 1 0 1 0 0-2.001 1 1 0 0 0 0 2z"/></svg><svg viewBox="0 0 23 21" id="like" xmlns="http://www.w3.org/2000/svg"><path fill-rule="evenodd" clip-rule="evenodd" d="M1.5 9c0-3.252 2.748-6 6-6 1.808 0 3.428.76 4.527 1.982C13.154 3.774 14.747 3 16.5 3c3.24 0 6 2.635 6 6 0 1.668-.707 3.222-1.693 4.207l-.004.004-8.1 8a1 1 0 0 1-1.406 0l-8.1-8a.985.985 0 0 1-.044-.047C2.229 12.125 1.5 10.698 1.5 9zm6-4c-2.148 0-4 1.852-4 4 0 1.091.462 2.055 1.127 2.812L12 19.095l7.393-7.302.002-.002C20.009 11.176 20.5 10.13 20.5 9c0-2.235-1.84-4-4-4-1.507 0-2.89.877-3.628 2.19a1 1 0 0 1-1.766-.043C10.478 5.891 9.127 5 7.5 5z"/></svg><svg viewBox="0 0 24 24" id="photo" xmlns="http://www.w3.org/2000/svg"><path fill-rule="evenodd" clip-rule="evenodd" d="M17.318 6h3.4c.446 0 .608.046.77.134a.906.906 0 0 1 .378.378c.088.163.134.324.134.77v12.436c0 .446-.046.608-.134.77a.908.908 0 0 1-.378.378c-.162.088-.324.134-.77.134H3.282c-.446 0-.607-.046-.77-.134a.908.908 0 0 1-.378-.378c-.088-.162-.134-.324-.134-.77V7.282c0-.446.046-.607.134-.77a.909.909 0 0 1 .378-.378c.163-.088.324-.134.77-.134h3.4l.882-2.351A1 1 0 0 1 8.5 3h7a1 1 0 0 1 .936.649L17.318 6zM12 18a5 5 0 1 1 0-10 5 5 0 0 1 0 10zm3-5a3 3 0 1 1-6 0 3 3 0 0 1 6 0z"/></svg><svg viewBox="0 0 18 18" id="star" xmlns="http://www.w3.org/2000/svg"><path fill-rule="evenodd" clip-rule="evenodd" d="m9 13.99-4.922 3.26a.547.547 0 0 1-.83-.603l1.578-5.69L.206 7.28a.548.548 0 0 1 .318-.976l5.896-.257L8.487.516a.547.547 0 0 1 1.026 0l2.067 5.53 5.897.258a.548.548 0 0 1 .316.976l-4.619 3.676 1.578 5.69a.548.548 0 0 1-.83.603L9 13.99Z"/></svg><svg viewBox="0 0 22 22" id="time" xmlns="http://www.w3.org/2000/svg"><path d="M22 12a10 10 0 1 0-20 0 10 10 0 0 0 20 0Zm-6.3 3.7a1 1 0 0 1-1.4 0l-3-3a1 1 0 0 1-.3-.7V7a1 1 0 1 1 2 0v4.59l2.7 2.7a1 1 0 0 1 0 1.42Z"/></svg><svg viewBox="0 0 12 18" id="up" xmlns="http://www.w3.org/2000/svg"><path fill-rule="evenodd" clip-rule="evenodd" d="M.62 8.329A.4.4 0 0 0 .915 9h3.087v5.111c0 .491.398.889.889.889h2.222a.89.89 0 0 0 .889-.889V9h3.086a.4.4 0 0 0 .294-.671L6.368 2.898a.5.5 0 0 0-.735 0L.621 8.328Z"/></svg><svg viewBox="0 0 16 16" id="view" xmlns="http://www.w3.org/2000/svg"><path fill-rule="evenodd" clip-rule="evenodd" d="M10.235 4.177a.75.75 0 0 0-1.058.089l-4.973 5.877L2.28 8.22a.75.75 0 0 0-1.06 1.06l2.5 2.5c.31.31.82.29 1.103-.045l5.5-6.5a.75.75 0 0 0-.088-1.058zM8.27 9.21l-.973 1.149L8.72 11.78c.31.31.82.29 1.103-.045l5.5-6.5a.75.75 0 1 0-1.146-.97l-4.973 5.878-.934-.934z"/></svg><svg viewBox="0 0 24 24" id="walk" xmlns="http://www.w3.org/2000/svg"><path d="M16.13 2.8c-.24 1.28-1.42 2.1-2.81 1.88a2.38 2.38 0 0 1-1.85-2.84 2.38 2.38 0 0 1 4.66.97ZM8.78 15.45 3.44 20.9a1.5 1.5 0 0 0 .1 2.21c.68.59 1.74.54 2.37-.1L11 17.83l-1.7-1.45c-.29-.25-.47-.58-.52-.93Zm-2.73-2.8c.71.53 1.73.38 2.26-.31l2.35-3.06.12-.04-.99 5.2c-.1.52.1 1.03.47 1.38.07.08.14.15.23.22l3.55 2.84 1.87 4.17c.36.8 1.34 1.17 2.2.84a1.53 1.53 0 0 0 .89-2.05l-2.02-4.52c-.1-.22-.26-.42-.46-.58l-3.27-2.61.67-3.54.76.88c.23.26.53.45.88.54l3.33.83c.9.22 1.82-.28 2.05-1.11.24-.84-.29-1.7-1.18-1.92l-2.8-.7-2.56-2.98a1.64 1.64 0 0 0-.44-.36A1.72 1.72 0 0 0 13 5.4c-.2-.01-.4 0-.6.07l-3.19.94c-.33.1-.61.3-.82.56l-2.67 3.47c-.53.7-.39 1.68.33 2.2Z"/></svg></svg>