<svg width="32" height="32" viewBox="0 0 32 32" fill="none" xmlns="http://www.w3.org/2000/svg">
<path d="M21.7201 3.61996C19.5901 3.61996 17.6301 2.95996 16.0001 1.82996C14.3801 2.95996 12.4101 3.61996 10.2801 3.61996C8.15006 3.61996 6.19006 2.95996 4.56006 1.82996V14.05C4.56006 18.4 6.52006 22.52 9.91006 25.25L16.0001 30.17L22.0901 25.25C25.4701 22.52 27.4401 18.4 27.4401 14.05V1.82996C25.8101 2.95996 23.8401 3.61996 21.7201 3.61996ZM16.0001 7.74996C17.3701 7.74996 18.4801 8.85996 18.4801 10.23C18.4801 11.6 17.3701 12.71 16.0001 12.71C14.6301 12.71 13.5201 11.6 13.5201 10.23C13.5201 8.85996 14.6301 7.74996 16.0001 7.74996ZM21.4001 20.66H10.6001V17.46C10.6001 16.42 11.2701 15.51 12.2601 15.19L15.0301 14.32C15.6601 14.12 16.3301 14.12 16.9601 14.32L19.7301 15.19C20.7201 15.5 21.3901 16.42 21.3901 17.46V20.66H21.4001Z" fill="#CAACFA"/>
</svg>
