<svg width="232" height="223" viewBox="0 12 232 223" fill="none" xmlns="http://www.w3.org/2000/svg">
<g clip-path="url(#clip0)">
<path d="M149.32 69.9097C149.32 69.9097 156.03 73.5568 158.3 87.8299C160.569 102.103 163.953 123.332 163.953 123.332H150.791L137.345 89.4484L131.325 103.978H114.296L118.434 73.07L149.32 69.9097Z" fill="#2E2E59"/>
<path d="M6.7871 154.403L1.23249 164.506C-3.41514 172.959 1.50774 183.481 10.979 185.343L33.978 189.856L28.085 157.491L6.7871 154.403Z" fill="#97CF00"/>
<path d="M13.4198 180.389C5.83013 178.901 1.15993 171.841 1.99921 164.745C2.05336 164.299 1.65628 163.731 1.22761 164.506C-3.42002 172.959 1.50286 183.481 10.9741 185.343L33.9731 189.856L32.9488 184.225L13.4198 180.389Z" fill="#59A800"/>
<path d="M95.3266 95.3677L8.72718 183.554C-2.3369 194.82 5.65433 213.835 21.4518 213.835H213.219C229.016 213.835 237.007 194.824 225.943 183.554L139.335 95.3677C127.251 83.0602 107.41 83.0602 95.3266 95.3677Z" fill="#00AAFF"/>
<path d="M23.1611 170.579H211.499" stroke="#0085FF" stroke-width="1.51294" stroke-miterlimit="10" stroke-linecap="round"/>
<path d="M64.4248 128.039L168.428 126.686" stroke="#0085FF" stroke-width="1.51294" stroke-miterlimit="10" stroke-linecap="round"/>
<path d="M136.782 89.0741L136.222 87.6675C135.798 86.5991 134.913 85.7831 133.817 85.4405L132.409 85.0032" stroke="#212721" stroke-width="1.51294" stroke-miterlimit="10" stroke-linecap="round"/>
<path d="M145.792 159.317L132.124 156.121L129.679 155.273C129.679 155.273 128.614 156.838 131.091 157.965C133.568 159.092 139.43 160.94 139.43 160.94L145.792 159.317Z" fill="#FFAD91"/>
<path d="M137.142 159.601L135.278 159.854C134.683 159.935 134.186 160.377 134.024 160.976C133.857 161.585 133.636 162.369 133.442 163.005C133.067 164.236 133.785 165.079 135.071 165.277C135.071 165.277 134.475 167.319 136.952 167.707C136.952 167.707 136.325 169.866 138.581 169.596C140.838 169.325 141.433 169.199 142.372 169.05C143.31 168.906 142.967 167.445 141.997 167.252C141.997 167.252 143.784 165.89 141.307 165.016C141.307 165.016 143.157 163.591 140.49 162.68L139.894 159.601H137.142Z" fill="#FFAD91"/>
<path d="M135.855 159.768L139.424 160.945C139.424 160.945 135.842 162.369 134.371 161.346L134.353 160.327C134.673 159.921 135.169 159.804 135.855 159.768Z" fill="#EE6C4D"/>
<path d="M158.033 172.441L145.792 159.322H142.57C141.546 159.322 140.539 159.61 139.664 160.147C138.793 160.688 137.787 160.972 136.758 160.972H134.818C134.818 160.972 134.317 163.05 136.573 163.329C138.829 163.609 140.693 163.167 140.693 163.167L141 168.622L143.788 168.419C145.007 168.329 146.148 169.032 146.617 170.164L149.929 178.144L158.033 172.441Z" fill="#FFAD91"/>
<path d="M134.822 160.972C134.822 160.972 134.131 164.267 140.697 163.163" stroke="#EE6C4D" stroke-width="1.51294" stroke-miterlimit="10" stroke-linecap="round"/>
<path d="M137.746 167.491C137.746 167.491 139.795 167.252 141.997 167.252C143.062 167.252 143.328 168.022 143.328 168.022" stroke="#EE6C4D" stroke-width="1.51294" stroke-miterlimit="10" stroke-linecap="round"/>
<path d="M136.198 165.236C136.198 165.236 137.859 165.579 140.995 164.952" stroke="#EE6C4D" stroke-width="1.51294" stroke-miterlimit="10" stroke-linecap="round"/>
<path d="M116.995 178.531L112.627 174.091C111.571 173.018 110.899 171.629 110.705 170.141L109.996 164.619C109.996 164.619 110.935 161.481 113.164 159.98L117.897 173.257L116.995 178.531Z" fill="#FFAD91"/>
<path d="M127.477 173.018L120.727 179.257C119.915 180.006 118.602 179.69 118.223 178.658L110.872 158.736C110.484 157.681 110.425 156.784 111.504 155.684C113.972 153.159 116.67 150.819 119.653 148.727C120.51 148.123 121.544 148.024 122.022 149.548L128.289 170.002C128.623 171.079 128.646 171.814 127.477 173.018Z" fill="#2E2E59"/>
<path d="M126.236 172.026L121.241 176.769C120.641 177.337 119.671 177.098 119.386 176.313L113.209 158.826C112.92 158.023 112.88 157.343 113.678 156.504C115.506 154.584 117.505 152.803 119.711 151.216C120.348 150.756 121.11 150.684 121.467 151.838L126.845 169.731C127.084 170.552 127.102 171.111 126.236 172.026Z" fill="white"/>
<path d="M114.273 155.882C115.717 154.606 116.53 156.076 117.509 155.53C118.704 154.863 117.342 152.997 119.038 151.707L116.512 152.374L114.273 155.882Z" fill="#2E2E59"/>
<path d="M104.179 119.32H127.674V146.049H98.6514L104.179 119.32Z" fill="white"/>
<path d="M101.508 108.933L117.856 112.662C119.286 112.986 120.757 113.072 122.215 112.914L123.839 112.738L123.181 117.972L111.895 140.825L85.2324 132.372L101.508 108.933Z" fill="white"/>
<path opacity="0.99" d="M112.662 110.218L115.717 113.662L116.908 117.327L118.916 118.689C118.916 118.689 118.569 120.05 116.908 120.05C115.248 120.05 114.364 119.113 113.601 118.202C113.362 117.918 113.154 117.652 112.983 117.422C112.536 116.818 111.873 116.412 111.133 116.277L109.653 116.011L105.858 120.646C105.858 120.646 102.785 125.78 101.251 127.034C99.7167 128.287 98.4758 127.611 98.7105 126.908C98.8052 126.623 101.093 122.399 101.093 122.399L102.095 119.951C102.528 118.802 101.801 119.316 101.54 119.582C100.556 120.587 99.112 121.998 97.6455 123.179C95.5609 124.861 94.2613 124.964 93.571 124.712C92.8806 124.46 92.7227 123.639 93.4221 123.13C95.8271 121.385 96.2016 120.28 96.2016 120.28C96.7386 119.726 97.3703 119.045 97.9253 118.473C98.8097 117.557 97.8667 117.95 97.6185 118.089C95.967 119.036 93.3544 120.42 91.7796 120.641C88.8963 121.047 89.0632 119.307 90.0875 118.95C93.0656 117.918 93.9094 116.552 93.9094 116.552C95.2405 115.862 96.3866 115.254 96.3866 115.254C96.3866 115.254 94.5546 115.601 92.3888 115.538C91.1434 115.502 90.5658 114.244 92.497 113.847C95.5383 113.22 99.7979 111.467 99.7979 111.467L105.849 109.871L112.662 110.218Z" fill="#FFAD91"/>
<path opacity="0.99" d="M96.3242 114.767L99.6317 113.203" stroke="#EE6C4D" stroke-width="1.51294" stroke-miterlimit="10" stroke-linecap="round"/>
<path d="M98.5439 117.305L100.015 116.227" stroke="#EE6C4D" stroke-width="1.51294" stroke-miterlimit="10" stroke-linecap="round"/>
<path d="M105.858 104.673V109.871C105.858 109.871 108.272 111.719 112.658 110.213L113.444 104.826L105.858 104.673Z" fill="#EA3F50"/>
<path d="M55.4427 183.95L35.1194 171.791C34.3162 171.313 33.9643 170.331 34.2801 169.452L60.3791 154.854L82.0966 167.797L55.4427 183.95Z" fill="#EAE5DB"/>
<path d="M41.2391 117.751C47.0464 119.257 47.0644 124.906 47.4389 129.288C47.8134 133.67 48.2556 139.873 48.8828 141.564C48.8828 141.564 58.8504 152.212 61.4811 154.967C64.1117 157.721 61.9594 160.349 58.503 158.14C52.3302 154.196 44.6819 149.016 42.0468 145.571C39.4161 142.127 38.1211 134.612 38.1211 127.408C38.1211 120.204 39.4883 117.296 41.2391 117.751Z" fill="#FFAD91"/>
<path d="M41.6221 122.093L38.1387 128.824C38.2966 135.577 39.5871 142.353 42.0508 145.572C42.8359 146.6 44.1445 147.853 45.6877 149.133L41.6221 122.093Z" fill="#EE6C4D"/>
<path d="M26.2968 117.747C20.2368 118.77 11.6139 123.522 11.298 127.94C10.7521 135.662 10.4497 141.501 10.4497 141.501L6.78125 154.403C6.78125 154.403 13.0759 164.628 28.0792 157.487L30.5338 151.27L39.3102 144.436C40.876 143.218 41.7919 141.343 41.7919 139.364V133.111C41.7919 128.914 44.9596 121.525 42.0266 118.391C39.0936 115.258 30.1052 117.107 26.2968 117.747Z" fill="white"/>
<path d="M28.7109 102.473C28.7109 102.473 28.2011 109.857 27.9754 113.423C27.7543 116.994 26.2969 117.747 26.2969 117.747C26.2969 117.747 27.064 122.868 29.5953 125.825C32.1267 128.783 35.5741 130.487 36.454 123.995C37.3294 117.499 37.8167 113.757 37.8167 113.757L28.7109 102.473Z" fill="#FFAD91"/>
<path d="M36.6581 122.453C37.4026 116.917 37.8133 113.757 37.8133 113.757L32.5068 114.262C32.5113 114.262 33.2062 118.103 36.6581 122.453Z" fill="#EE6C4D"/>
<path d="M40.0433 92.5861C48.1924 92.5861 48.8332 97.3063 48.1609 100.989C47.642 103.843 47.6419 104.686 47.6419 106.99C47.6419 109.294 46.4958 110.984 44.1991 114.645C41.9069 118.31 39.741 118.919 36.9208 117.273C34.1006 115.628 29.5884 111.67 30.7164 105.358C31.8445 99.0464 33.2072 92.4869 33.2072 92.4869L40.0433 92.5861Z" fill="#FFAD91"/>
<path d="M27.9763 99.4793C32.5293 99.4793 36.2202 95.7917 36.2202 91.2427C36.2202 86.6938 32.5293 83.0062 27.9763 83.0062C23.4233 83.0062 19.7324 86.6938 19.7324 91.2427C19.7324 95.7917 23.4233 99.4793 27.9763 99.4793Z" fill="#FF6163"/>
<path d="M35.7553 93.943C33.9369 95.4893 31.4687 96.2197 28.9328 95.7824C25.3049 95.1557 23.2699 93.3073 22.3584 91.2471C21.3071 88.8622 19.9444 88.2716 19.7413 90.7692C19.3984 94.9303 22.557 98.7713 26.7669 99.398C30.7287 99.9795 34.4784 97.6353 35.7553 93.943Z" fill="#EA3F50"/>
<path d="M26.0944 98.4107C26.0944 98.4107 24.5286 90.8008 33.2103 92.4913L30.9541 98.4107H26.0944Z" fill="#2E2E59"/>
<path d="M41.5768 97.3152C41.5768 97.3152 38.4724 103.514 33.1163 99.2898C33.1163 99.2898 33.4006 104.362 29.6374 109.059C25.8742 113.757 19.9541 112.134 18.9749 107.463C17.6032 100.935 23.7128 96.3775 28.9786 97.3152C28.9786 97.3152 27.106 91.8061 31.14 89.8946C34.7137 88.2041 37.3443 91.6799 43.0794 88.2987C48.8145 84.9176 53.4215 89.1463 53.047 94.6869C52.6274 100.872 45.2453 104.172 41.5768 97.3152Z" fill="#FF6163"/>
<path d="M22.1417 105.705C21.8845 104.303 22.1643 102.996 22.417 101.612C22.814 99.4433 22.065 98.6273 20.2826 100.935C18.9786 102.626 18.4326 104.916 18.9696 107.459C19.9352 112.057 25.6883 113.698 29.4516 109.267C26.3968 111.3 22.8411 109.519 22.1417 105.705Z" fill="#EA3F50"/>
<path d="M33.979 101.269C33.979 101.269 33.7128 98.6859 31.4567 98.1359C29.2005 97.5859 28.1176 99.7092 28.7132 102.473C30.0082 108.487 32.9277 105.29 32.9277 105.29L33.979 101.269Z" fill="#FFAD91"/>
<path d="M36.64 107.977C37.5334 107.486 37.6869 109.339 39.4512 110.186C41.1252 110.989 39.3474 113.099 37.5605 112.066C35.7646 111.029 35.8865 108.396 36.64 107.977Z" fill="white"/>
<path d="M40.7009 108.636C41.0168 108.04 42.0321 108.978 43.2549 108.87C44.4777 108.762 43.9182 109.452 42.7856 109.699C41.4996 109.983 40.349 109.298 40.7009 108.636Z" fill="#EE6C4D"/>
<path d="M32.7685 95.7825C32.7685 95.7825 31.9834 99.9932 36.1166 100.714" stroke="#EA3F50" stroke-width="1.51294" stroke-miterlimit="10" stroke-linecap="round"/>
<path d="M41.0845 94.2811C41.0845 94.2811 40.9987 95.7147 41.3236 96.9725" stroke="#EA3F50" stroke-width="1.51294" stroke-miterlimit="10" stroke-linecap="round"/>
<path d="M23.0544 154.62C22.3009 151.518 22.1159 142.596 20.514 134.517C18.9167 126.439 14.9323 124.004 12.5499 125.077C10.2802 126.105 7.95187 134.608 13.3621 158.19C13.872 160.413 15.5415 162.184 17.7254 162.838C23.2123 164.484 33.8884 167.504 40.6342 168.239C44.9615 168.708 44.9299 165.674 42.0466 164.2C34.29 160.241 23.0544 154.62 23.0544 154.62Z" fill="#FFAD91"/>
<path d="M28.2571 151.207C28.2571 151.207 29.7822 149.345 33.5409 147.303C33.5409 147.303 31.3389 148.028 28.2796 149.25C25.2203 150.472 23.9072 147.889 23.9072 147.889" stroke="#EAE5DB" stroke-width="1.51294" stroke-miterlimit="10" stroke-linecap="round" stroke-linejoin="round"/>
<path d="M29.457 91.2696C29.457 91.2696 30.7385 88.2085 35.9231 89.6782" stroke="#EA3F50" stroke-width="1.51294" stroke-miterlimit="10" stroke-linecap="round"/>
<path d="M32.055 100.007C32.055 100.007 29.0678 98.9698 29.5958 102.477" stroke="#EE6C4D" stroke-width="1.51294" stroke-miterlimit="10" stroke-linecap="round"/>
<path d="M30.7786 108.437C31.6434 108.437 32.3444 107.634 32.3444 106.643C32.3444 105.652 31.6434 104.849 30.7786 104.849C29.9139 104.849 29.2129 105.652 29.2129 106.643C29.2129 107.634 29.9139 108.437 30.7786 108.437Z" fill="white"/>
<path d="M30.7783 110.56C30.7783 110.56 31.8116 113.788 34.5731 116.232" stroke="#EE6C4D" stroke-width="1.51294" stroke-miterlimit="10" stroke-linecap="round"/>
<path d="M39.0402 166.512C39.0402 166.512 38.7695 170.024 42.1853 170.462C44.1978 170.718 46.2328 169.907 46.2328 169.907L49.2921 169.65C49.2921 169.65 50.0276 170.362 51.3046 170.917C51.3046 170.917 51.1196 172.905 51.5708 173.36C52.0265 173.816 52.5048 173.45 52.5048 173.45L53.0689 171.115C53.0689 171.115 53.1546 172.752 54.6346 172.251L54.5354 171.246C54.5354 171.246 55.5281 171.8 55.7717 170.836L55.334 168.302C55.334 168.302 56.9269 169.519 57.8383 168.302L55.1581 165.98L52.0762 164.2C51.5302 163.884 50.9075 163.717 50.2758 163.717H40.4571L39.0402 166.512Z" fill="#FFAD91"/>
<path d="M53.2134 170.529L51.21 168.316" stroke="#EE6C4D" stroke-width="1.51294" stroke-miterlimit="10" stroke-linecap="round"/>
<path d="M52.9072 167.346L53.9405 168.582" stroke="#EE6C4D" stroke-width="1.51294" stroke-miterlimit="10" stroke-linecap="round"/>
<path d="M57.7256 156.761L58.1317 160.259C58.1317 160.259 59.1109 161.129 59.2552 162.324C59.3996 163.519 60.1081 163.713 60.4555 162.888C60.9473 161.716 60.3382 160.656 60.3382 160.656L60.5277 159.272L63.772 160.286L68.0271 158.357C68.0271 158.357 69.295 155.868 68.2392 155.422C66.0597 154.502 59.9637 154.011 59.9637 154.011L57.7256 156.761Z" fill="#FFAD91"/>
<path d="M56.1554 184.041C55.6951 184.311 55.1356 183.887 55.28 183.369L61.534 160.931C62.0304 159.155 62.7027 157.956 64.9182 156.856L88.197 145.414C89.4108 144.828 90.7058 144.99 90.1373 146.73L82.7913 168.293L56.1554 184.041Z" fill="white"/>
<path d="M75.4751 163.592C75.8581 162.042 75.5705 160.639 74.8326 160.457C74.0947 160.274 73.186 161.383 72.803 162.932C72.4199 164.482 72.7075 165.885 73.4454 166.067C74.1833 166.25 75.092 165.141 75.4751 163.592Z" stroke="#EAE5DB" stroke-width="1.51294" stroke-miterlimit="10"/>
<path d="M95.1279 181.894L88.6347 181.444L82.1416 181.894L84.5827 192.75H84.5872C84.9212 194.143 86.6042 195.203 88.6347 195.203C90.6653 195.203 92.3483 194.143 92.6823 192.75H92.6868L95.1279 181.894Z" fill="white"/>
<path d="M88.635 185.248C92.2459 185.248 95.1732 183.545 95.1732 181.443C95.1732 179.342 92.2459 177.638 88.635 177.638C85.024 177.638 82.0967 179.342 82.0967 181.443C82.0967 183.545 85.024 185.248 88.635 185.248Z" fill="#EAE5DB"/>
<path d="M157.253 120.717L151.541 120.343L145.828 120.717L147.976 129.729H147.98C148.274 130.883 149.754 131.767 151.541 131.767C153.328 131.767 154.808 130.888 155.101 129.729H155.105L157.253 120.717Z" fill="white"/>
<path d="M151.54 123.427C154.718 123.427 157.293 122.046 157.293 120.343C157.293 118.64 154.718 117.26 151.54 117.26C148.363 117.26 145.787 118.64 145.787 120.343C145.787 122.046 148.363 123.427 151.54 123.427Z" fill="#EAE5DB"/>
<path d="M113.947 42.9864C113.947 42.9864 110.563 44.7401 106.488 46.7463C102.414 48.7525 101.159 55.1993 102.288 61.1502C103.416 67.101 105.861 78.561 105.861 78.561V104.677C105.861 104.677 106.926 106.805 109.936 106.805C111.339 106.805 112.413 106.341 113.162 105.849C113.943 105.335 114.412 104.461 114.43 103.528C114.471 101.418 114.886 96.5579 117.458 90.296C120.937 81.816 119.998 74.3954 119.998 74.3954C119.998 74.3954 122.444 79.4221 128.274 80.2651C134.104 81.1127 138.805 77.3528 138.805 77.3528C138.805 77.3528 142.569 79.5618 147.266 77.3077C147.266 77.3077 151.119 79.2823 153.849 76.1806C156.575 73.079 154.319 66.5059 150.745 63.4043C150.104 60.7129 149.653 59.8112 148.525 57.7825C147.397 55.7538 146.369 54.2436 145.019 52.6611C145.019 52.6611 150.086 55.2308 157.021 55.3075L153.845 65.2617C153.845 65.2617 155.162 70.4507 159.864 68.0072C159.864 68.0072 164.787 61.3665 168.807 53.2111C170.378 50.0238 168.988 46.1647 165.735 44.7311C159.977 42.193 151.363 38.4106 147.297 36.7019C140.118 33.6859 130.431 37.4954 130.431 37.4954L113.947 42.9864Z" fill="#FF6163"/>
<path d="M119.995 74.3955C118.397 71.8033 117.779 71.2307 115.496 69.2291C114.431 68.2959 113.253 67.4122 111.376 63.9679C109.495 60.5236 107.992 57.8322 107.992 57.8322" stroke="#EA3F50" stroke-width="1.51294" stroke-miterlimit="10" stroke-linecap="round"/>
<path d="M119.408 46.7416C119.408 46.7416 118.212 47.4314 116.863 49.122L119.277 51.6286L121.619 51.3761C121.619 51.3761 122.756 49.965 122.91 48.1212L119.408 46.7416Z" fill="white"/>
<path d="M125.779 35.7057C125.779 35.7057 127.264 34.8762 128.397 35.7688C129.728 36.8147 130.432 37.4955 130.432 37.4955C130.432 37.4955 129.457 44.366 125.509 50.5063L119.408 46.7464C119.408 46.7464 117.599 47.7157 115.627 51.967C115.627 51.967 113.086 48.0448 112.807 43.8656C112.807 43.8656 113.168 42.175 113.668 40.4213C114.169 38.6676 116.854 39.7451 116.854 39.7451L125.779 35.7057Z" fill="#FF6163"/>
<path d="M125.509 28.2399C125.509 28.2399 125.757 30.521 126.051 33.1043C126.349 35.6875 127.283 36.4855 127.283 36.4855C127.283 36.4855 126.38 40.9802 119.409 46.7417C119.409 46.7417 116.909 45.786 114.919 42.9232V35.5973L125.509 28.2399Z" fill="#FFAD91"/>
<path d="M116.909 45.1324L121.408 35.4036L114.919 35.5929V42.9188C114.919 42.9233 115.632 44.0684 116.909 45.1324Z" fill="#EE6C4D"/>
<path d="M108.583 17.127C107.09 18.777 106.688 23.3304 108.128 26.6304C108.128 26.6304 108.913 31.7112 109.693 36.1338C110.479 40.5564 113.84 41.5752 118.122 39.1047C122.237 36.7289 125.31 33.4153 125.31 29.5202C125.31 25.6251 125.31 15.5446 125.31 15.5446L108.583 17.127Z" fill="#FFAD91"/>
<path d="M110.186 12.0147C103.427 12.0147 102.56 18.8492 108.783 18.9439C113.29 19.016 115.186 16.5816 115.186 16.5816C115.186 16.5816 116.314 19.1062 119.17 18.7185C120.93 18.4795 121.913 17.0324 121.913 17.0324L122.82 22.8706L126.299 22.7669C126.299 22.7669 126.782 17.4246 125.866 14.8324C124.95 12.2401 121.913 12.0147 119.824 12.0147C117.731 12.0147 110.186 12.0147 110.186 12.0147Z" fill="#2E2E59"/>
<path d="M123.901 24.6108C123.901 24.6108 124.551 21.7526 126.694 21.703C128.837 21.6534 129.185 24.1329 128.454 25.6162C127.723 27.0994 127.208 28.7629 125.986 29.1641C124.763 29.5609 123.896 28.7043 123.896 28.7043V24.6108H123.901Z" fill="#FFAD91"/>
<path d="M113.299 23.9074L113.678 26.1345C114.107 28.1903 115.248 28.4202 116.624 28.1407L118.511 27.7575C119.611 27.532 120.401 26.5718 120.401 25.4583V23.2537L113.299 23.9074Z" fill="white"/>
<path d="M112.021 23.9256L106.183 24.5973L106.647 26.6396C106.882 27.6719 107.721 28.4203 108.651 28.4293L110.244 28.4474C110.555 28.4519 110.844 28.4203 111.096 28.3437C111.728 26.2248 112.021 23.9256 112.021 23.9256Z" fill="white"/>
<path d="M124.864 22.6542L106.265 24.6108" stroke="#212721" stroke-width="1.51294" stroke-miterlimit="10" stroke-linecap="round"/>
<path d="M110.871 30.733C110.947 30.5076 112.342 30.6338 113.303 30.2506C114.381 29.8178 114.774 30.2867 114.228 30.8637C113.42 31.7158 110.681 31.2965 110.871 30.733Z" fill="#EE6C4D"/>
<path d="M115.496 33.6813C115.496 33.6813 117.689 32.5317 118.316 30.0792" stroke="#EE6C4D" stroke-width="1.51294" stroke-miterlimit="10" stroke-linecap="round"/>
<path d="M125.306 24.3987C125.306 24.3987 126.831 22.4827 128.212 24.1102" stroke="#EE6C4D" stroke-width="1.51294" stroke-miterlimit="10" stroke-linecap="round"/>
<path d="M123.902 34.4658C123.902 34.4658 122.418 37.1663 117.292 40.2679" stroke="#EE6C4D" stroke-width="1.51294" stroke-miterlimit="10" stroke-linecap="round"/>
<path d="M121.619 51.3762L129.214 82.6589L122.914 90.2914L116.913 84.2504L118.718 69.1703C119.093 66.037 119.282 62.8903 119.282 59.7345V51.6287L121.619 51.3762Z" fill="white"/>
<path d="M145.02 52.6565C141.735 51.2048 139.704 49.5999 139.704 49.5999C142.361 53.7588 143.465 54.7986 148.273 57.3316C148.273 57.3316 146.721 54.4012 145.02 52.6565Z" fill="#EA3F50"/>
<path d="M144.514 52.9722C144.514 52.9722 140.751 51.1689 137.484 47.4045" stroke="#EA3F50" stroke-width="1.51294" stroke-miterlimit="10" stroke-linecap="round"/>
<path d="M157.022 55.303C159.896 55.303 162.901 54.1309 162.901 54.1309L155.935 58.7112L157.022 55.303Z" fill="#EA3F50"/>
<path d="M164.094 53.5131C164.094 53.5131 161.522 55.6681 157.389 55.8213" stroke="#EA3F50" stroke-width="1.51294" stroke-miterlimit="10" stroke-linecap="round"/>
<path d="M152.764 69.9323C152.764 69.9323 149.885 73.6696 149.466 77.8984C149.466 77.8984 149.326 79.0389 150.418 79.1877C150.747 79.2328 151.018 79.4492 151.199 79.7242C151.388 80.0082 151.726 80.3193 152.34 80.4275C153.455 80.6213 154.095 80.9685 155.508 81.3427C156.92 81.7168 157.606 81.5004 158.549 80.4365C159.492 79.3726 160.557 78.0561 160.557 78.0561C160.557 78.0561 160.404 76.618 160.178 74.9094C160.024 73.7463 159.226 73.7012 158.549 74.4541C158.549 74.4541 158.951 72.7725 157.389 70.9151C156.342 69.6753 152.764 69.9323 152.764 69.9323Z" fill="#FFAD91"/>
<path d="M154.135 66.0549L152.764 69.932C152.764 69.932 154.298 71.9968 157.389 70.9193L159.866 68.007C159.866 68.007 156.527 70.0988 154.135 66.0549Z" fill="#EA3F50"/>
<path d="M158.995 74.58C158.995 74.58 158.995 76.2481 157.89 78.119" stroke="#EE6C4D" stroke-width="1.51294" stroke-miterlimit="10" stroke-linecap="round"/>
<path d="M123.902 49.5097L125.509 50.5016C125.509 50.5016 127.977 46.8724 129.61 41.1379" stroke="#EA3F50" stroke-width="1.51294" stroke-miterlimit="10" stroke-linecap="round"/>
<path d="M113.177 46.1963C113.177 46.1963 113.975 49.4963 115.622 51.9623" stroke="#EA3F50" stroke-width="1.51294" stroke-miterlimit="10" stroke-linecap="round"/>
<path d="M120.401 124.04L111.904 141.248L102.243 138.187" stroke="#EAE5DB" stroke-width="1.51294" stroke-miterlimit="10" stroke-linecap="round" stroke-linejoin="round"/>
<path d="M219.915 96.4225H187.11C170.889 96.4225 170.826 114.199 184.326 116.236C185.54 116.421 186.334 117.611 186.054 118.806L184.773 124.279C184.534 125.514 185.337 125.271 185.779 124.865L193.215 118.044C194.249 117.097 195.607 116.579 197.01 116.606L219.73 117.003C233.876 117.003 235.432 96.4225 219.915 96.4225Z" fill="#97CF00"/>
<path d="M202.754 108.203C203.684 108.203 204.437 107.45 204.437 106.521C204.437 105.593 203.684 104.84 202.754 104.84C201.825 104.84 201.071 105.593 201.071 106.521C201.071 107.45 201.825 108.203 202.754 108.203Z" fill="#F5F5F5"/>
<path d="M212.532 108.203C213.461 108.203 214.215 107.45 214.215 106.521C214.215 105.593 213.461 104.84 212.532 104.84C211.602 104.84 210.849 105.593 210.849 106.521C210.849 107.45 211.602 108.203 212.532 108.203Z" fill="#F5F5F5"/>
<path d="M192.976 108.203C193.906 108.203 194.659 107.45 194.659 106.521C194.659 105.593 193.906 104.84 192.976 104.84C192.046 104.84 191.293 105.593 191.293 106.521C191.293 107.45 192.046 108.203 192.976 108.203Z" fill="#F5F5F5"/>
<path d="M140.706 184.027C136.762 188.224 134.696 190.604 134.696 190.604L119.399 172.441L115.388 174.695C115.388 174.695 121.529 190.726 130.499 201.659C133.125 204.859 135.345 204.346 137.624 202.727C141.058 200.288 146.17 196.555 150.493 192.98L140.706 184.027Z" fill="#FFAD91"/>
<path d="M142.655 199.075C145.214 197.178 147.984 195.054 150.489 192.98L140.702 184.022C140.706 184.027 138.441 190.798 142.655 199.075Z" fill="#EE6C4D"/>
<path d="M187.323 169.745H165.655C161.819 169.745 157.406 170.66 154.189 172.752C150.236 175.321 144.844 179.519 140.702 184.027C140.702 184.027 140.084 191.79 148.359 198.12L145.828 213.835H192.737L196.243 179.622C196.785 174.339 192.638 169.745 187.323 169.745Z" fill="white"/>
<path d="M148.359 198.12C150.272 199.292 151.68 199.576 151.68 199.576L158.028 188.224L154.125 213.831H145.827L148.359 198.12Z" fill="#EAE5DB"/>
<path d="M160.552 183.243L152.281 199.589" stroke="#EAE5DB" stroke-width="1.51294" stroke-miterlimit="10" stroke-linecap="round" stroke-linejoin="round"/>
<path d="M177.311 140.405C177.311 140.405 172.104 139.684 170.773 143.516C169.315 147.709 167.258 147.073 165.846 147.709C164.429 148.344 164.672 149.124 165.209 149.611C165.746 150.098 166.558 150.797 166.558 150.797C166.558 150.797 165.06 154.895 164.248 157.983C163.436 161.071 164.289 162.568 167.023 163.023C169.758 163.478 171.003 164.597 170.155 166.873C169.306 169.15 168.219 169.745 168.219 169.745H182.338C182.338 169.745 182.275 167.73 185.33 162.076L177.311 140.405Z" fill="#FFAD91"/>
<path d="M178.629 150.215C178.629 150.215 174.694 150.54 173.034 147.938C171.82 146.04 172.691 143.637 173.25 142.479C173.399 142.168 173.494 141.861 172.867 141.749C172.262 141.64 171.414 141.37 170.791 140.594C169.55 139.053 170.389 136.01 173.44 136.866C174.13 137.06 174.089 136.735 174.108 136.402C174.157 135.387 174.59 133.557 177.004 133.021C180.118 132.331 182.92 134.567 183.502 136.041C183.502 136.041 184.224 135.036 185.266 135.23C186.458 135.451 186.602 136.789 186.602 136.789C186.602 136.789 191.173 135.766 193.533 138.543C195.446 140.797 195.207 143.962 194.25 145.612C194.101 145.869 193.993 146.149 194.462 146.333C195.193 146.622 196.276 147.546 196.299 149.367C196.321 151.026 195.442 152.063 194.751 152.649C194.079 153.222 194.295 153.569 194.611 153.984C195.252 154.822 196.019 156.279 195.487 158.014C194.977 159.678 193.682 160.336 192.725 160.561C191.814 160.778 191.945 161.22 192.12 161.711C192.45 162.613 192.626 163.979 191.453 165.169C189.612 167.04 185.275 166.796 184.932 163.483C184.901 163.176 184.621 162.955 184.319 163.023C183.281 163.253 181.115 163.505 179.676 162.117C177.722 160.232 178.994 156.495 180.718 155.584L178.629 150.215Z" fill="#2E2E59"/>
<path d="M193.723 146.789C193.723 146.789 192.992 147.898 191.169 148.633" stroke="#212721" stroke-width="1.51294" stroke-miterlimit="10" stroke-linecap="round"/>
<path d="M191.493 161.116C191.493 161.116 190.144 161.359 188.556 160.773" stroke="#212721" stroke-width="1.51294" stroke-miterlimit="10" stroke-linecap="round"/>
<path d="M166.756 155.481C166.715 154.408 168.479 154.439 169.359 153.696C170.239 152.947 170.821 153.371 170.659 154.119C170.496 154.868 170.072 155.842 168.935 156.36C167.798 156.878 166.787 156.324 166.756 155.481Z" fill="white"/>
<path d="M178.403 150.215C178.403 150.215 179.892 148.786 181.562 149.909C183.227 151.031 182.572 154.101 180.993 155.954C179.414 157.807 178.755 159.074 176.391 158.001L178.403 150.215Z" fill="#FFAD91"/>
<path d="M180.497 151.045C180.497 151.045 178.611 150.909 178.156 152.217C177.731 153.43 178.905 154.493 177.731 155.566" stroke="#EE6C4D" stroke-width="1.51294" stroke-miterlimit="10" stroke-linecap="round"/>
<path d="M176.174 160.647C176.174 160.647 174.067 161.603 172.447 162.126C169.072 163.212 167.023 163.023 167.023 163.023C169.325 163.406 170.552 164.394 170.385 166.012C170.385 166.012 173.408 162.482 176.174 160.647Z" fill="#EE6C4D"/>
<path d="M176.997 159.971C176.997 159.971 175.616 161.847 170.855 163.163" stroke="#EE6C4D" stroke-width="1.51294" stroke-miterlimit="10" stroke-linecap="round"/>
<path d="M137.967 235.322H184.371C187.381 235.322 190.142 233.645 191.514 230.971C194.569 225.025 200.101 213.443 204.834 199.08C211.801 177.954 186.036 171.828 168.492 185.249C154.522 195.938 140.643 217.92 134.249 228.852C132.575 231.72 134.641 235.322 137.967 235.322Z" fill="#A169F7"/>
<path d="M166.855 169.745H185.73L185.216 167.085C185.144 166.706 184.837 166.44 184.489 166.458C182.161 166.576 173.556 167.157 166.855 169.745Z" fill="#EAE5DB"/>
<path d="M120.244 173.441V169.497C120.244 168.6 119.928 167.73 119.35 167.035L117.875 165.268C117.523 164.844 117.329 164.317 117.329 163.767V161.869C117.329 161.869 115.01 161.45 115.104 164.457C115.131 165.39 115.28 166.215 115.456 166.882C115.709 167.838 115.01 168.784 114.021 168.861L113.069 168.933L114.694 174.69L120.244 173.441Z" fill="#FFAD91"/>
<path d="M136.641 160.507C136.641 160.507 138.364 160.534 139.65 159.768" stroke="#EE6C4D" stroke-width="1.51294" stroke-miterlimit="10" stroke-linecap="round"/>
<path d="M174.643 188.161C185.138 181.128 193.887 183.116 193.887 183.116" stroke="#5A4A8C" stroke-width="1.51294" stroke-miterlimit="10" stroke-linecap="round" stroke-linejoin="round"/>
<path d="M141.172 230.602C141.172 230.602 155.742 205.838 168.665 193.084C169.396 192.363 170.127 191.686 170.854 191.06" stroke="#5A4A8C" stroke-width="1.51294" stroke-miterlimit="10" stroke-linecap="round" stroke-linejoin="round"/>
<path d="M106.211 79.2238L107.664 83.9845" stroke="#EA3F50" stroke-width="1.51294" stroke-miterlimit="10" stroke-linecap="round"/>
<path d="M105.745 60.5369L111.534 64.2562" stroke="#EA3F50" stroke-width="1.51294" stroke-miterlimit="10" stroke-linecap="round"/>
<path d="M91.2258 38.4738C91.0904 35.1467 89.9173 32.5229 85.0214 32.5229H34.7548C31.3255 32.5229 28.5459 35.3 28.5459 38.7262V67.0786C28.5459 72.475 31.5827 73.5073 35.1654 73.2684L44.4201 72.6508C45.4895 72.5786 46.3152 73.566 46.0625 74.6028L44.9751 79.0299C44.5915 80.3959 45.0382 80.6935 46.225 79.8324L54.5817 73.2549C55.7413 72.3442 57.1492 71.7987 58.6202 71.704L86.4428 69.8512C89.7999 69.6257 92.3719 66.772 92.232 63.4089L91.2258 38.4738Z" fill="#A169F7"/>
<path d="M81.9735 38.1985V65.9468L39.1611 66.8304V38.1985H81.9735Z" stroke="#5A4A8C" stroke-width="1.51294" stroke-miterlimit="10" stroke-linecap="round" stroke-linejoin="round"/>
<path d="M81.9755 42.7518H39.1631" stroke="#5A4A8C" stroke-width="1.51294" stroke-miterlimit="10" stroke-linecap="round" stroke-linejoin="round"/>
<path d="M81.9745 47.3727H39.1621" stroke="#5A4A8C" stroke-width="1.51294" stroke-miterlimit="10" stroke-linecap="round" stroke-linejoin="round"/>
<path d="M39.1631 51.9937H81.9755" stroke="#5A4A8C" stroke-width="1.51294" stroke-miterlimit="10" stroke-linecap="round" stroke-linejoin="round"/>
<path d="M39.1621 56.6146H81.9745" stroke="#5A4A8C" stroke-width="1.51294" stroke-miterlimit="10" stroke-linecap="round" stroke-linejoin="round"/>
<path d="M39.1611 61.4744L81.9735 61.2355" stroke="#5A4A8C" stroke-width="1.51294" stroke-miterlimit="10" stroke-linecap="round" stroke-linejoin="round"/>
<path d="M39.1611 38.1985V66.4652" stroke="#5A4A8C" stroke-width="1.51294" stroke-miterlimit="10" stroke-linecap="round" stroke-linejoin="round"/>
<path d="M70.1338 38.1984L70.3008 66.1901" stroke="#5A4A8C" stroke-width="1.51294" stroke-miterlimit="10" stroke-linecap="round" stroke-linejoin="round"/>
<path d="M58.2891 38.1984V66.3209" stroke="#5A4A8C" stroke-width="1.51294" stroke-miterlimit="10" stroke-linecap="round" stroke-linejoin="round"/>
<path d="M46.4492 38.1984V66.677" stroke="#5A4A8C" stroke-width="1.51294" stroke-miterlimit="10" stroke-linecap="round" stroke-linejoin="round"/>
<path d="M197.179 221.04C196.922 221.04 196.665 220.991 196.412 220.891C195.374 220.468 194.878 219.282 195.297 218.245L198.424 210.595C198.849 209.558 200.035 209.057 201.073 209.481C202.111 209.905 202.607 211.09 202.188 212.127L199.061 219.778C198.74 220.562 197.982 221.04 197.179 221.04Z" fill="#A169F7"/>
<path d="M201.072 209.48C200.035 209.057 198.848 209.552 198.424 210.594L197.102 213.831H201.487L202.182 212.127C202.611 211.09 202.115 209.904 201.072 209.48Z" fill="#0046F7"/>
<path d="M201.073 209.481C200.035 209.057 198.848 209.553 198.424 210.594L195.297 218.245C194.882 219.264 195.355 220.418 196.357 220.86C197.855 217.519 199.475 213.701 201.1 209.494C201.091 209.494 201.086 209.485 201.073 209.481Z" fill="#662BEF"/>
<path d="M61.5833 215.634H31.3196C30.3223 215.634 29.5146 214.827 29.5146 213.831C29.5146 212.835 30.3223 212.028 31.3196 212.028H61.5833C62.5806 212.028 63.3882 212.835 63.3882 213.831C63.3882 214.827 62.576 215.634 61.5833 215.634Z" fill="#00AAFF"/>
<path d="M63.3882 213.831C63.3882 212.835 62.5806 212.028 61.5833 212.028H31.3196C30.3223 212.028 29.5146 212.835 29.5146 213.831H63.3882Z" fill="#0071FF"/>
<path d="M28.55 64.5899C27.6791 64.5899 26.9707 63.8821 26.9707 63.012V57.0431C26.9707 56.173 27.6791 55.4652 28.55 55.4652C29.4209 55.4652 30.1293 56.173 30.1293 57.0431V63.012C30.1293 63.8821 29.4209 64.5899 28.55 64.5899Z" fill="#A169F7"/>
<path d="M30.1291 63.012V57.0431C30.1291 56.173 29.4207 55.4652 28.5498 55.4652V64.5899C29.4207 64.5899 30.1291 63.8821 30.1291 63.012Z" fill="#662BEF"/>
<path d="M122.065 66.5374C121.551 66.5374 121.086 66.1858 120.968 65.6628C120.829 65.0542 121.208 64.4501 121.817 64.3103L125.372 63.4943C125.982 63.3546 126.586 63.7333 126.726 64.3419C126.866 64.9505 126.487 65.5546 125.878 65.6944L122.322 66.5104C122.232 66.5284 122.151 66.5374 122.065 66.5374Z" fill="#A169F7"/>
<path d="M125.874 65.6946C126.483 65.5549 126.862 64.9507 126.722 64.3421C126.582 63.7335 125.978 63.3548 125.369 63.4946L124.602 63.6704L125.134 65.8614L125.874 65.6946Z" fill="#A12860"/>
</g>
<defs>
<clipPath id="clip0">
<rect width="232" height="235.268" fill="white"/>
</clipPath>
</defs>
</svg>
